<?xml version="1.0" encoding="utf-8"?>
<svg version="1.1" xmlns:xlink="http://www.w3.org/1999/xlink" width="41px" height="39px" xmlns="http://www.w3.org/2000/svg">
  <g transform="matrix(1 0 0 1 -894 -81 )">
    <path d="M 0 8.357142857142858  L 20.5 0  L 41 8.357142857142858  L 41 11.142857142857142  L 38.266666666666666 11.142857142857142  C 38.266666666666666 11.520089285714286  38.12074652777778 11.846540178571429  37.828906249999996 12.122209821428573  C 37.53706597222222 12.39787946428571  37.19184027777778 12.535714285714285  36.79322916666666 13  L 4.206770833333334 13  C 3.8081597222222223 12.535714285714285  3.462934027777778 12.39787946428571  3.1710937500000003 12.122209821428573  C 2.879253472222222 11.846540178571429  2.7333333333333334 11.520089285714286  2.7333333333333334 11.142857142857142  L 0 11.142857142857142  L 0 8.357142857142858  Z M 6 30.642857142857142  L 6 13.928571428571427  L 11 13.928571428571427  L 11 30.642857142857142  L 14 30.642857142857142  L 14 13.928571428571427  L 19.133333333333333 13.928571428571427  L 19.133333333333333 30.642857142857142  L 21.866666666666667 30.642857142857142  L 21.866666666666667 13.928571428571427  L 27 13.928571428571427  L 27 30.642857142857142  L 30 30.642857142857142  L 30 13.928571428571427  L 35 13.928571428571427  L 35 30.642857142857142  L 36.79322916666666 30.642857142857142  C 37.19184027777778 30.642857142857142  37.53706597222222 30.78069196428571  37.828906249999996 31.056361607142858  C 38.12074652777778 31.332031250000004  38.266666666666666 31.658482142857146  38.266666666666666 32.035714285714285  L 38.266666666666666 33  L 2.7333333333333334 33  L 2.7333333333333334 32.035714285714285  C 2.7333333333333334 31.658482142857146  2.879253472222222 31.332031250000004  3.1710937500000003 31.056361607142858  C 3.462934027777778 30.78069196428571  3.8081597222222223 30.642857142857142  4.206770833333334 30.642857142857142  L 6 30.642857142857142  Z M 1.4734375 34.82142857142858  L 39.526562500000004 34.82142857142858  C 39.92517361111111 34.82142857142858  40.27039930555556 34.95926339285714  40.56223958333334 35.234933035714285  C 40.85407986111112 35.51060267857143  41.00000000000001 35.83705357142857  41 36.214285714285715  L 41 39  L 0 39  L 0 36.214285714285715  C 0 35.83705357142857  0.14592013888888888 35.51060267857143  0.43776041666666665 35.234933035714285  C 0.7296006944444445 34.95926339285714  1.074826388888889 34.82142857142858  1.4734375 34.82142857142858  Z " fill-rule="nonzero" fill="#f8f8f8" stroke="none" transform="matrix(1 0 0 1 894 81 )" />
  </g>
</svg>