<?xml version="1.0" encoding="utf-8"?>
<svg version="1.1" xmlns:xlink="http://www.w3.org/1999/xlink" width="39px" height="39px" xmlns="http://www.w3.org/2000/svg">
  <g transform="matrix(1 0 0 1 -971 -81 )">
    <path d="M 24.095703125 24.095703125000004  C 25.365234375 22.826171874999996  26 21.294270833333332  26 19.5  C 26 17.705729166666664  25.365234375 16.173828125  24.095703125 14.904296875000002  C 22.826171875 13.634765625  21.294270833333336 13.000000000000002  19.5 13.000000000000002  C 17.705729166666668 13.000000000000002  16.173828125 13.634765625  14.904296875 14.904296875000002  C 13.634765625 16.173828125  13 17.705729166666664  13 19.5  C 13 21.294270833333332  13.634765625 22.826171874999996  14.904296875 24.095703125000004  C 16.173828125 25.365234375  17.705729166666668 26.000000000000004  19.5 26.000000000000004  C 21.294270833333336 26.000000000000004  22.826171875 25.365234375  24.095703125 24.095703125000004  Z M 26.583984375 12.416015625  C 28.530598958333336 14.362630208333329  29.50390625 16.72395833333333  29.50390625 19.5  C 29.50390625 22.276041666666668  28.530598958333336 24.637369791666668  26.583984375 26.583984375  C 24.637369791666668 28.530598958333332  22.276041666666668 29.50390625  19.5 29.50390625  C 16.723958333333336 29.50390625  14.362630208333334 28.530598958333332  12.416015625 26.583984375  C 10.469401041666668 24.637369791666668  9.49609375 22.276041666666668  9.49609375 19.5  C 9.49609375 16.72395833333333  10.469401041666668 14.362630208333329  12.416015625 12.416015625  C 14.362630208333334 10.469401041666663  16.723958333333336 9.496093750000002  19.5 9.496093750000002  C 22.276041666666668 9.496093750000002  24.637369791666668 10.469401041666663  26.583984375 12.416015625  Z M 31.560546875 7.439453125000002  C 32.017578125 7.896484375000002  32.24609375 8.44661458333333  32.24609375 9.089843749999998  C 32.24609375 9.733072916666666  32.017578125 10.283203125  31.560546875 10.740234375  C 31.103515625 11.197265625  30.553385416666668 11.42578125  29.91015625 11.42578125  C 29.266927083333332 11.42578125  28.716796875 11.197265625  28.259765625 10.740234375  C 27.802734375 10.283203125  27.57421875 9.733072916666666  27.57421875 9.089843749999998  C 27.57421875 8.44661458333333  27.802734375 7.896484375000002  28.259765625 7.439453125000002  C 28.716796875 6.982421875000002  29.266927083333332 6.753906250000002  29.91015625 6.753906250000002  C 30.553385416666668 6.753906250000002  31.103515625 6.982421875000002  31.560546875 7.439453125000002  Z M 21.4423828125 3.4912109374999987  C 20.265950520833336 3.4996744791666634  19.618489583333336 3.50390625  19.5 3.50390625  C 19.381510416666668 3.50390625  18.734049479166668 3.4996744791666634  17.5576171875 3.4912109374999987  C 16.381184895833336 3.4827473958333295  15.48828125 3.4827473958333295  14.87890625 3.4912109374999987  C 14.26953125 3.4996744791666634  13.452799479166666 3.525065104166666  12.4287109375 3.5673828124999987  C 11.404622395833336 3.609700520833331  10.532877604166668 3.6943359375  9.8134765625 3.8212890625000013  C 9.094075520833334 3.9482421874999987  8.488932291666668 4.104817708333331  7.998046875 4.291015624999998  C 7.151692708333334 4.629557291666666  6.406901041666667 5.1204427083333295  5.763671875 5.763671875000002  C 5.120442708333334 6.406901041666664  4.629557291666667 7.151692708333331  4.291015625 7.998046875  C 4.104817708333334 8.488932291666663  3.9482421875 9.09407552083333  3.8212890625 9.813476562499998  C 3.6943359375 10.532877604166666  3.6097005208333335 11.404622395833329  3.5673828125 12.428710937500002  C 3.5250651041666665 13.452799479166664  3.499674479166667 14.269531249999998  3.4912109375 14.878906249999998  C 3.482747395833334 15.488281249999998  3.482747395833334 16.38118489583333  3.4912109375 17.5576171875  C 3.499674479166667 18.734049479166664  3.50390625 19.381510416666664  3.50390625 19.5  C 3.50390625 19.618489583333332  3.499674479166667 20.265950520833332  3.4912109375 21.4423828125  C 3.482747395833334 22.618815104166668  3.482747395833334 23.511718749999996  3.4912109375 24.121093749999996  C 3.499674479166667 24.730468749999996  3.5250651041666665 25.547200520833325  3.5673828125 26.571289062500004  C 3.6097005208333335 27.59537760416666  3.6943359375 28.46712239583333  3.8212890625 29.186523437499996  C 3.9482421875 29.905924479166664  4.104817708333334 30.51106770833333  4.291015625 31.001953125  C 4.629557291666667 31.848307291666664  5.120442708333334 32.593098958333336  5.763671875 33.236328125  C 6.406901041666667 33.879557291666664  7.151692708333334 34.370442708333336  7.998046875 34.708984375  C 8.488932291666668 34.895182291666664  9.094075520833334 35.0517578125  9.8134765625 35.1787109375  C 10.532877604166668 35.3056640625  11.404622395833336 35.390299479166664  12.4287109375 35.4326171875  C 13.452799479166666 35.474934895833336  14.26953125 35.500325520833336  14.87890625 35.5087890625  C 15.48828125 35.517252604166664  16.381184895833336 35.517252604166664  17.5576171875 35.5087890625  C 18.734049479166668 35.500325520833336  19.381510416666668 35.49609375  19.5 35.49609375  C 19.618489583333336 35.49609375  20.265950520833336 35.500325520833336  21.4423828125 35.5087890625  C 22.618815104166668 35.517252604166664  23.51171875 35.517252604166664  24.12109375 35.5087890625  C 24.73046875 35.500325520833336  25.547200520833336 35.474934895833336  26.5712890625 35.4326171875  C 27.59537760416667 35.390299479166664  28.467122395833332 35.3056640625  29.1865234375 35.1787109375  C 29.905924479166668 35.0517578125  30.511067708333336 34.895182291666664  31.001953125 34.708984375  C 31.848307291666668 34.370442708333336  32.593098958333336 33.879557291666664  33.236328125 33.236328125  C 33.87955729166667 32.593098958333336  34.370442708333336 31.848307291666664  34.708984375 31.001953125  C 34.89518229166667 30.51106770833333  35.0517578125 29.905924479166664  35.1787109375 29.186523437499996  C 35.3056640625 28.46712239583333  35.39029947916667 27.59537760416666  35.4326171875 26.571289062500004  C 35.474934895833336 25.547200520833325  35.500325520833336 24.730468749999996  35.5087890625 24.121093749999996  C 35.51725260416667 23.511718749999996  35.51725260416667 22.618815104166668  35.5087890625 21.4423828125  C 35.500325520833336 20.265950520833332  35.49609375 19.618489583333332  35.49609375 19.5  C 35.49609375 19.381510416666664  35.500325520833336 18.734049479166664  35.5087890625 17.5576171875  C 35.51725260416667 16.38118489583333  35.51725260416667 15.488281249999998  35.5087890625 14.878906249999998  C 35.500325520833336 14.269531249999998  35.474934895833336 13.452799479166664  35.4326171875 12.428710937500002  C 35.39029947916667 11.404622395833329  35.3056640625 10.532877604166666  35.1787109375 9.813476562499998  C 35.0517578125 9.09407552083333  34.89518229166667 8.488932291666663  34.708984375 7.998046875  C 34.370442708333336 7.151692708333331  33.87955729166667 6.406901041666664  33.236328125 5.763671875000002  C 32.593098958333336 5.1204427083333295  31.848307291666668 4.629557291666666  31.001953125 4.291015624999998  C 30.511067708333336 4.104817708333331  29.905924479166668 3.9482421874999987  29.1865234375 3.8212890625000013  C 28.467122395833332 3.6943359375  27.59537760416667 3.609700520833331  26.5712890625 3.5673828124999987  C 25.547200520833336 3.525065104166666  24.73046875 3.4996744791666634  24.12109375 3.4912109374999987  C 23.51171875 3.4827473958333295  22.618815104166668 3.4827473958333295  21.4423828125 3.4912109374999987  Z M 38.873046875 11.451171874999998  C 38.957682291666664 12.94075520833333  39 15.623697916666664  39 19.5  C 39 23.376302083333336  38.957682291666664 26.059244791666664  38.873046875 27.548828124999996  C 38.70377604166667 31.069661458333336  37.654296875 33.794921875  35.724609375 35.724609375  C 33.794921875 37.654296875  31.069661458333336 38.703776041666664  27.548828125 38.873046875  C 26.059244791666668 38.957682291666664  23.376302083333336 39  19.5 39  C 15.623697916666666 39  12.940755208333334 38.957682291666664  11.451171875 38.873046875  C 7.930338541666668 38.703776041666664  5.205078125000001 37.654296875  3.275390625 35.724609375  C 1.345703125 33.794921875  0.29622395833333337 31.069661458333336  0.126953125 27.548828124999996  C 0.04231770833333333 26.059244791666664  0 23.376302083333336  0 19.5  C 0 15.623697916666664  0.04231770833333333 12.94075520833333  0.126953125 11.451171874999998  C 0.29622395833333337 7.930338541666664  1.345703125 5.205078124999998  3.275390625 3.275390625  C 5.205078125000001 1.3457031250000013  7.930338541666668 0.29622395833333093  11.451171875 0.12695312500000144  C 12.940755208333334 0.04231770833332804  15.623697916666666 0  19.5 0  C 23.376302083333336 0  26.059244791666668 0.04231770833332804  27.548828125 0.12695312500000144  C 31.069661458333336 0.29622395833333093  33.794921875 1.3457031250000013  35.724609375 3.275390625  C 37.654296875 5.205078124999998  38.70377604166667 7.930338541666664  38.873046875 11.451171874999998  Z " fill-rule="nonzero" fill="#f8f8f8" stroke="none" transform="matrix(1 0 0 1 971 81 )" />
  </g>
</svg>