<?xml version="1.0" encoding="utf-8"?>
<svg version="1.1" xmlns:xlink="http://www.w3.org/1999/xlink" width="50px" height="50px" xmlns="http://www.w3.org/2000/svg">
  <g transform="matrix(1 0 0 1 -1132 -76 )">
    <path d="M 37.17447916666667 35.44921875  C 40.16927083333333 34.97178819444444  41.66666666666667 34.22309027777778  41.66666666666667 33.203125  C 41.66666666666667 32.72569444444444  41.42795138888889 32.43272569444444  40.95052083333333 32.32421875  C 39.496527777777786 32.02039930555555  38.21614583333333 31.39105902777778  37.109375 30.436197916666664  C 36.00260416666667 29.481336805555557  35.134548611111114 28.298611111111104  34.50520833333333 26.888020833333336  C 34.353298611111114 26.584201388888886  34.27734375 26.31293402777778  34.27734375 26.07421875  C 34.27734375 25.748697916666664  34.48893229166667 25.466579861111104  34.912109375 25.227864583333336  C 35.33528645833333 24.989149305555554  35.79644097222223 24.8046875  36.29557291666667 24.674479166666668  C 36.794704861111114 24.544270833333332  37.255859375 24.32183159722222  37.67903645833333 24.007161458333332  C 38.10221354166667 23.692491319444443  38.31380208333333 23.29644097222222  38.31380208333333 22.819010416666668  C 38.31380208333333 22.406684027777775  38.113064236111114 22.064887152777775  37.71158854166667 21.793619791666668  C 37.31011284722223 21.522352430555554  36.892361111111114 21.38671875  36.45833333333333 21.38671875  C 36.21961805555556 21.38671875  35.883246527777786 21.473524305555554  35.44921875 21.647135416666668  C 35.01519097222223 21.820746527777775  34.66796875 21.907552083333332  34.40755208333333 21.907552083333332  C 34.320746527777786 21.907552083333332  34.19053819444445 21.885850694444443  34.01692708333333 21.842447916666668  C 34.125434027777786 20.475260416666668  34.1796875 19.227430555555554  34.1796875 18.098958333333332  C 34.1796875 16.40625  33.99522569444445 15.169270833333332  33.62630208333333 14.388020833333332  C 32.84505208333333 12.6953125  31.73285590277778 11.376953125  30.289713541666668 10.432942708333332  C 28.846571180555557 9.488932291666668  27.191840277777786 9.016927083333332  25.325520833333332 9.016927083333332  C 21.028645833333336 9.016927083333332  18.044704861111114 10.807291666666668  16.373697916666664 14.388020833333332  C 15.983072916666666 15.21267361111111  15.787760416666666 16.460503472222214  15.787760416666666 18.131510416666668  C 15.787760416666666 18.956163194444443  15.852864583333334 20.19314236111111  15.983072916666666 21.842447916666668  C 15.766059027777779 21.885850694444443  15.603298611111112 21.907552083333332  15.494791666666666 21.907552083333332  C 15.256076388888893 21.907552083333332  14.914279513888893 21.820746527777775  14.469401041666666 21.647135416666668  C 14.024522569444445 21.473524305555554  13.69357638888889 21.38671875  13.4765625 21.38671875  C 13.042534722222223 21.38671875  12.635633680555555 21.522352430555554  12.255859375 21.793619791666668  C 11.876085069444446 22.064887152777775  11.686197916666668 22.41753472222222  11.686197916666668 22.8515625  C 11.686197916666668 23.307291666666668  11.897786458333332 23.692491319444443  12.320963541666668 24.007161458333332  C 12.744140625 24.32183159722222  13.20529513888889 24.544270833333332  13.704427083333334 24.674479166666668  C 14.203559027777779 24.8046875  14.664713541666668 24.989149305555554  15.087890625 25.227864583333336  C 15.511067708333334 25.466579861111104  15.722656250000004 25.748697916666664  15.72265625 26.07421875  C 15.722656250000004 26.31293402777778  15.646701388888893 26.584201388888886  15.494791666666666 26.888020833333336  C 14.105902777777779 29.8828125  11.957465277777779 31.69487847222222  9.049479166666668 32.32421875  C 8.572048611111112 32.43272569444444  8.333333333333332 32.72569444444444  8.333333333333332 33.203125  C 8.333333333333332 34.22309027777778  9.830729166666668 34.97178819444444  12.825520833333334 35.44921875  C 12.868923611111112 35.55772569444444  12.934027777777779 35.83984375  13.020833333333334 36.295572916666664  C 13.10763888888889 36.751302083333336  13.226996527777779 37.082248263888886  13.37890625 37.288411458333336  C 13.530815972222223 37.49457465277778  13.780381944444445 37.59765625  14.127604166666666 37.59765625  C 14.409722222222223 37.59765625  14.827473958333334 37.54340277777777  15.380859375 37.434895833333336  C 15.934244791666668 37.326388888888886  16.35199652777778 37.272135416666664  16.634114583333336 37.272135416666664  C 17.393663194444446 37.272135416666664  18.126085069444446 37.434895833333336  18.831380208333336 37.76041666666667  C 19.536675347222225 38.0859375  20.128038194444446 38.43858506944444  20.60546875 38.818359375  C 21.082899305555557 39.19813368055555  21.706814236111114 39.55078125  22.477213541666664 39.87630208333333  C 23.247612847222225 40.20182291666667  24.077690972222225 40.36458333333333  24.967447916666664 40.36458333333333  C 25.90060763888889 40.36458333333333  26.757812500000007 40.20182291666667  27.5390625 39.87630208333333  C 28.320312500000007 39.55078125  28.944227430555557 39.19813368055555  29.410807291666668 38.818359375  C 29.87738715277778 38.43858506944444  30.46332465277778 38.0859375  31.168619791666668 37.76041666666667  C 31.873914930555557 37.434895833333336  32.60633680555556 37.272135416666664  33.36588541666667 37.272135416666664  C 33.64800347222223 37.272135416666664  34.07118055555556 37.320963541666664  34.63541666666667 37.418619791666664  C 35.199652777777786 37.51627604166667  35.622829861111114 37.56510416666667  35.90494791666667 37.56510416666667  C 36.23046875 37.56510416666667  36.474609375 37.46202256944444  36.63736979166667 37.255859375  C 36.80013020833333 37.04969618055555  36.92491319444445 36.71332465277778  37.01171875 36.246744791666664  C 37.09852430555556 35.78016493055555  37.152777777777786 35.514322916666664  37.17447916666667 35.44921875  Z M 47.24934895833333 2.7506510416666687  C 49.08311631944444 4.584418402777773  50 6.792534722222215  50 9.375  L 50 40.625  C 50 43.20746527777777  49.08311631944444 45.41558159722223  47.24934895833333 47.24934895833333  C 45.41558159722223 49.08311631944444  43.207465277777786 50  40.625 50  L 9.375 50  C 6.792534722222222 50  4.584418402777779 49.08311631944444  2.750651041666667 47.24934895833333  C 0.9168836805555555 45.41558159722223  0 43.20746527777777  0 40.625  L 0 9.375  C 0 6.792534722222215  0.9168836805555555 4.584418402777773  2.750651041666667 2.7506510416666687  C 4.584418402777779 0.9168836805555525  6.792534722222222 0  9.375 0  L 40.625 0  C 43.207465277777786 0  45.41558159722223 0.9168836805555525  47.24934895833333 2.7506510416666687  Z " fill-rule="nonzero" fill="#f8f8f8" stroke="none" transform="matrix(1 0 0 1 1132 76 )" />
  </g>
</svg>